<?xml version="1.0" standalone="no"?>
<!DOCTYPE svg PUBLIC "-//W3C//DTD SVG 20010904//EN"
 "http://www.w3.org/TR/2001/REC-SVG-20010904/DTD/svg10.dtd">
<svg version="1.0" xmlns="http://www.w3.org/2000/svg"
 width="1445.000000pt" height="1445.000000pt" viewBox="0 0 1445.000000 1445.000000"
 preserveAspectRatio="xMidYMid meet">
<metadata>
Created by potrace 1.14, written by Peter Selinger 2001-2017
</metadata>
<g transform="translate(0.000000,1445.000000) scale(0.100000,-0.100000)"
fill="#000000" stroke="none">
<path d="M3280 14329 c-355 -5 -421 -8 -530 -28 -706 -123 -1292 -430 -1767
-924 -407 -424 -670 -911 -803 -1485 -54 -234 -57 -262 -65 -567 -3 -115 -8
-1910 -10 -3989 l-5 -3778 4337 5 c3928 4 4348 6 4443 21 241 37 432 96 635
195 435 214 751 531 970 975 169 342 230 665 204 1081 -10 152 -16 192 -49
332 -79 330 -256 668 -474 901 -153 164 -278 271 -435 374 -276 180 -646 307
-941 323 -120 6 -779 12 -2040 16 -856 3 -946 7 -1045 39 -289 94 -526 305
-635 566 -60 145 -73 213 -74 389 -1 145 2 169 27 259 49 176 138 328 269 457
117 115 249 192 438 255 l85 29 1505 0 c828 0 1546 -4 1595 -8 538 -49 1019
-182 1481 -408 409 -201 755 -450 1090 -784 179 -179 202 -203 279 -300 22
-27 43 -52 46 -55 16 -13 156 -210 223 -312 383 -588 596 -1218 655 -1943 11
-127 11 -492 0 -610 -50 -556 -176 -1009 -413 -1492 -207 -422 -445 -755 -770
-1078 -208 -207 -259 -252 -433 -384 -578 -436 -1205 -695 -1938 -801 -194
-28 -176 -28 -4595 -32 -1928 -2 -3603 -5 -3723 -8 l-217 -5 57 -85 c164 -246
444 -536 720 -746 291 -221 711 -420 1083 -514 295 -74 362 -83 680 -89 441
-9 8265 -6 8340 3 231 27 408 62 585 113 764 221 1412 723 1823 1412 215 362
363 790 418 1216 17 134 20 568 23 4164 l3 3863 -4334 -5 c-4821 -5 -4408 1
-4694 -72 -729 -187 -1316 -773 -1505 -1504 -27 -106 -37 -160 -55 -302 -12
-87 -8 -406 5 -509 59 -456 266 -873 600 -1209 314 -316 713 -520 1157 -591
38 -6 83 -14 99 -16 17 -3 530 -7 1140 -10 1346 -5 1839 -10 1885 -19 67 -12
215 -66 280 -102 242 -131 434 -373 500 -628 38 -146 33 -408 -10 -541 -85
-264 -273 -485 -517 -608 -134 -67 -212 -87 -368 -95 -166 -9 -2969 -7 -3005
1 -14 4 -59 9 -100 13 -41 3 -91 8 -110 11 -42 5 -67 9 -215 35 -100 17 -336
77 -472 119 -453 139 -1012 438 -1348 721 -11 10 -40 34 -65 54 -234 191 -518
498 -707 765 -442 622 -691 1313 -752 2085 -9 109 -7 607 2 655 3 14 8 52 12
85 9 88 33 253 46 316 6 30 15 74 20 98 64 314 169 611 339 956 206 419 436
741 770 1076 350 350 707 605 1142 813 405 194 854 326 1268 372 30 3 66 8 80
10 61 11 880 14 4519 19 2136 3 3886 7 3889 9 2 3 -31 53 -73 112 -326 447
-698 766 -1166 1000 -351 176 -713 279 -1119 320 -88 9 -7598 12 -8190 3z"/>
</g>
</svg>
